/* XPM */
static const char * ar2211_xpm[] = {
"34 18 2 1",
".	c #FFFFFF",
"+	c #000000",
"..................................",
"..................................",
"..++++........++++.....++......++.",
".++++++......++++++...+++.....+++.",
".++..++......++..++..++++....++++.",
".++..++......++..++..+.++....+.++.",
".....++..........++....++......++.",
".....++..........++....++..++..++.",
".....++..........++....++..++..++.",
"....++..........++.....++......++.",
"...+++.........+++.....++......++.",
"..+++.........+++......++......++.",
"..++..........++.......++......++.",
".++..........++........++......++.",
".++++++..++..++++++....++..++..++.",
".++++++..++..++++++....++..++..++.",
"..................................",
".................................."};
