/* XPM */
static const char * arL169_xpm[] = {
"34 18 2 1",
".	c #FFFFFF",
"+	c #000000",
"..................................",
"..................................",
".++.......++...+++++.......+++++..",
".++......+++..+++++++.....+++++++.",
".++.....++++..+++.+++.....++...++.",
".++....+++++..++...++.+++.++...++.",
".++....++.++..++......+++.++...++.",
".++.......++..++......+++.++...++.",
".++.......++..++++++......+++++++.",
".++.......++..+++++++......++++++.",
".++.......++..++...++..........++.",
".++.......++..++...++..........++.",
".++.......++..++...++.....++...++.",
".++.......++..++...++.+++.+++.+++.",
".+++++++..++..+++++++.+++.+++++++.",
".+++++++..++...+++++..+++..+++++..",
"..................................",
".................................."};
