/* XPM */
static const char * arLG169_xpm[] = {
"34 18 2 1",
".	c #FFFFFF",
"+	c #000000",
"..................................",
"..................................",
"..........++...+++++.......+++++..",
".++......+++..+++++++.....+++++++.",
"..++....++++..+++.+++.....++...++.",
"...++..+++++..++...++.+++.++...++.",
"....++.++.++..++......+++.++...++.",
".....++...++..++......+++.++...++.",
"......++..++..++++++......+++++++.",
"......++..++..+++++++......++++++.",
".....++...++..++...++..........++.",
"....++....++..++...++..........++.",
"...++.....++..++...++.....++...++.",
"..++......++..++...++.+++.+++.+++.",
".++.......++..+++++++.+++.+++++++.",
"..........++...+++++..+++..+++++..",
"..................................",
".................................."};
