/* XPM */
static const char * arrowturn_xpm[] = {
"18 19 2 1",
".	c #FFFFFF",
"#	c #000000",
"....########......",
"...##########.....",
"..############....",
"..#####..#####....",
"..####....####....",
"..###......###....",
"..###......###....",
"..###......###....",
"..###......###....",
"..###......###....",
"..###......###....",
"..###......###....",
"..###......###....",
"..###......###....",
"..###...#########.",
"..###....#######..",
"..###.....#####...",
"..###......###....",
"............#....."};
