/* XPM */
static const char * frew4_xpm[] = {
"28 21 2 1",
".	c #FFFFFF",
"#	c #000000",
"............................",
".............####.....####..",
"...........######...######..",
"..........#####....#####....",
"........######...######.....",
".......#####....#####.......",
".....######...######........",
"....#####....#####..........",
"..######...######...........",
"..######...######...........",
"....#####....#####..........",
".....######...######........",
".......#####....#####.......",
"........######...######.....",
"..........#####....#####....",
"...........######...######..",
".............####.....####..",
"..######....................",
"..######...######...######..",
"..######...######...######..",
"............................"};

