/* XPM */
static const char * new_xpm[] = {
"18 23 2 1",
".	c #FFFFFF",
"#	c #000000",
".##...##..........",
".###..##..........",
".####.##..........",
".#######..........",
".##.####..........",
".##..###..........",
".##...##..........",
"..................",
".....#######......",
".....#######......",
".....##...........",
".....#####........",
".....##...........",
".....#######......",
".....#######......",
"..................",
".........##...##..",
".........##...##..",
".........##...##..",
".........##...##..",
".........##...##..",
".........#######..",
"..........#####..."};
