/* XPM */
static const char * pause_xpm[] = {
"28 21 2 1",
".	c #FFFFFF",
"#	c #000000",
"............................",
".....#######....#######.....",
".....#######....#######.....",
".....#######....#######.....",
".....#######....#######.....",
".....#######....#######.....",
".....#######....#######.....",
".....#######....#######.....",
".....#######....#######.....",
".....#######....#######.....",
".....#######....#######.....",
".....#######....#######.....",
".....#######....#######.....",
".....#######....#######.....",
".....#######....#######.....",
".....#######....#######.....",
".....#######....#######.....",
".....#######....#######.....",
".....#######....#######.....",
"............................",
"............................"};
