/* XPM */
static const char * rec_xpm[] = {
"16 23 2 1",
".	c #FFFFFF",
"#	c #000000",
".#####..........",
".######.........",
".##..##.........",
".######.........",
".####...........",
".##.###.........",
".##..###........",
"................",
".....######.....",
".....######.....",
".....##.........",
".....####.......",
".....##.........",
".....######.....",
".....######.....",
"................",
"..........####..",
".........######.",
"........###..##.",
"........##......",
"........###..##.",
".........######.",
"..........####.."
};
