/* XPM */
static const char * sfwd6_xpm[] = {
"28 21 2 1",
".	c #FFFFFF",
"#	c #000000",
"............................",
"..######...####.............",
"..######...######...........",
"..######.....#####..........",
"..######......######........",
"..######........#####.......",
"..######.........######.....",
"..######...........#####....",
"..######............######..",
"..######............######..",
"..######...........#####....",
"..######.........######.....",
"..######........#####.......",
"..######......######........",
"..######.....#####..........",
"..######...######...######..",
"..######...####.....######..",
"....................######..",
"..######...######...######..",
"..######...######...######..",
"............................"};
