/* XPM */
const char * unmute_xpm[] = {
"26 20 2 1",
".	c #FFFFFF",
"+	c #000000",
"...............++.........",
".............++++.........",
"...........++++++.........",
"..........+++..++.........",
"........+++....++.........",
".....++++......++.........",
"++++++++.......++.........",
"+++++++........++.........",
"++...++........++.........",
"++...++........++.........",
"++...++........++.........",
"++...++........++.........",
"+++++++........++.........",
"++++++++.......++.........",
".....++++......++.........",
"........+++....++.........",
"..........+++..++.........",
"...........++++++.........",
".............++++.........",
"...............++........."};
