/* XPM */
static const char *const CarHD_xpm [] = {
/* columns rows colors chars-per-pixel */
"63 33 2 1 ",
". c #000000",
"# c #FFFFFF",
/* pixels */
"...............................................................",
"...............................................................",
"...............................................................",
"...............................................................",
".......#########.........########.....#################........",
".......########.........#########.....###################......",
".......########.........#########.....####################.....",
"......#########.........########......#####################....",
"......#########.........########......######################...",
"......########..........########.....#########....##########...",
"......########.........#########.....#########......#########..",
"......########.........#########.....########........########..",
".....#########.........########......########........########..",
".....##########################.....#########........########..",
".....##########################.....#########........########..",
".....##########################.....########.........########..",
"....##########################......########.........########..",
"....##########################.....#########........#########..",
"....##########################.....#########........#########..",
"...#########.........#########.....########........#########...",
"...#########.........#########.....########........#########...",
"...#########.........########......########........#########...",
"...########..........########.....#########......##########....",
"...########.........#########.....########################.....",
"..#########.........#########.....########################.....",
"..#########.........########......######################.......",
"..#########.........########.....#######################.......",
"..########.........#########.....#####################.........",
"..########.........#########.....#################.............",
"...............................................................",
"...............................................................",
"...............................................................",
"..............................................................."
};
