/* XPM */
static const char *const Carrowup_xpm [] = {
/* columns rows colors chars-per-pixel */
"23 23 2 1 ",
". c #000000",
"# c #FFFFFF",
/* pixels */
"...........#...........",
"..........###..........",
"..........###..........",
".........#####.........",
".........#####.........",
"........#######........",
"........#######........",
".......#########.......",
".......#########.......",
"......###########......",
"......###########......",
".....#############.....",
".....#############.....",
"....###############....",
"....###############....",
"...#################...",
"...#################...",
"..###################..",
"..###################..",
".#####################.",
".#####################.",
"#######################",
"#######################"
};
