/* XPM */
static const char *const Cclock_xpm [] = {
/* columns rows colors chars-per-pixel */
"37 37 2 1 ",
". c #FFFFFF",
"# c #000000",
/* pixels */
".....................................",
".....................................",
"...............#######...............",
"............#############............",
"..........#################..........",
".........######.......######.........",
".......#####.............#####.......",
"......#####...............#####......",
"......###........####.......###......",
".....###.........####........###.....",
"....####.........####........####....",
"....###..........####.........###....",
"...###...........####..........###...",
"...###...........####..........###...",
"...###...........####..........###...",
"..###............####...........###..",
"..###............####...........###..",
"..###....############...........###..",
"..###....############...........###..",
"..###....############...........###..",
"..###....############...........###..",
"..###...........................###..",
"...###.........................###...",
"...###.........................###...",
"...###.........................###...",
"....###.......................###....",
"....####.....................###.....",
".....###.....................###.....",
"......###...................###......",
"......#####...............#####......",
".......#####.............#####.......",
".........######.......######.........",
"..........#################..........",
"............#############............",
"...............#######...............",
".....................................",
"....................................."
};
