/* XPM */
static const char *const Cclocksml_xpm[] = {
"64 64 10 1",
" 	c None",
".	c #ADADAD",
"+	c #AAAAAA",
"@	c #B0B0B0",
"#	c #ACACAC",
"$	c #AEAEAE",
"%	c #B1B1B1",
"&	c #ABABAB",
"*	c #B2B2B2",
"=	c #AFAFAF",
"                                                                ",
"                                                                ",
"                                                                ",
"                                                                ",
"                                                                ",
"                                                                ",
"                                                                ",
"                                                                ",
"                                                                ",
"                                                                ",
"                                                                ",
"                                                                ",
"                                                                ",
"                                                                ",
"                                                                ",
"                                                                ",
"                             .++++.                             ",
"                            @++++++@                            ",
"                            @++++++@                            ",
"                             .++++.                             ",
"                              ++++     +#                       ",
"                            $++++++$  #+++%                     ",
"                          &++++++++++&++++&                     ",
"                        .+++++++++++++++++                      ",
"                       &+++++#&**&#++++++$                      ",
"                      +++++$        $+++++                      ",
"                     #++++            ++++#                     ",
"                    #+++#              #+++#                    ",
"                    +++&                #+++                    ",
"                   $+++@++.              +++$                   ",
"                   #++& $++#*            &++#                   ",
"                   +++#   &+++           #+++                   ",
"                   +++     ++++&#         +++                   ",
"                  ++++      ++++++        ++++                  ",
"                  ++++       =++++*       ++++                  ",
"                  ++++        ++++        ++++                  ",
"                   +++         ..         +++                   ",
"                   +++&                  &+++                   ",
"                   .+++                  +++.                   ",
"                   $+++$                .+++$                   ",
"                    &+++                +++&                    ",
"                    $++++              ++++$                    ",
"                     +++++            +++++                     ",
"                      &+++++        +++++&                      ",
"                       .+++++&.&&.&+++++.                       ",
"                        $++++++++++++++$                        ",
"                          $++++++++++$                          ",
"                            @&=##=&@                            ",
"                                                                ",
"                                                                ",
"                                                                ",
"                                                                ",
"                                                                ",
"                                                                ",
"                                                                ",
"                                                                ",
"                                                                ",
"                                                                ",
"                                                                ",
"                                                                ",
"                                                                ",
"                                                                ",
"                                                                ",
"                                                                "};
