/* XPM */
static const char *const Cclocksml_xpm[] = {
"40 40 8 1",
" 	c None",
".	c #ACACAC",
"+	c #AAAAAA",
"@	c #ADADAD",
"#	c #AFAFAF",
"$	c #AEAEAE",
"%	c #ABABAB",
"&	c #B0B0B0",
"                                        ",
"                                        ",
"                                        ",
"                                        ",
"                                        ",
"                                        ",
"                                        ",
"                                        ",
"                                        ",
"                                        ",
"                  .++.                  ",
"                  ++++                  ",
"                  @++@                  ",
"                 #++++$ ++#             ",
"               .++++++++++              ",
"              %++%%&&%%+++              ",
"             .++        ++.             ",
"             +%          %+             ",
"            .+$%.        %+.            ",
"            ++  %%+       ++            ",
"            ++   +++%     ++            ",
"            +%    @++&    %+            ",
"            ++     %%     ++            ",
"            ++            ++            ",
"            %+.          .+%            ",
"             ++          ++             ",
"             %++        ++%             ",
"              .++%   @%++.              ",
"               .++++++++.               ",
"                 @%..%@                 ",
"                                        ",
"                                        ",
"                                        ",
"                                        ",
"                                        ",
"                                        ",
"                                        ",
"                                        ",
"                                        ",
"                                        "};
