/* XPM */
static const char *const Cclocksml_xpm [] = {
/* columns rows colors chars-per-pixel */
"26 26 2 1 ",
". c #FFFFFF",
"# c #000000",
/* pixels */
"..........................",
"..........................",
".........########.........",
".......############.......",
".....####........####.....",
"....####..........####....",
"....###.....###....###....",
"...###......###.....###...",
"...##.......###......##...",
"..##........###.......##..",
"..##........###.......##..",
"..##........###.......##..",
"..##...########.......##..",
"..##...########.......##..",
"..##...########.......##..",
"..##..................##..",
"..##..................##..",
"...##................##...",
"...###..............##....",
"....###............###....",
"....####..........####....",
".....####........####.....",
".......############.......",
".........########.........",
"..........................",
".........................."
};
