/* XPM */
static const char *const Cclock_xpm[] = {
"40 40 2 1",
" 	c None",
".	c #FFFFFF",
"                                        ",
"                                        ",
"                                        ",
"                                        ",
"                 ......                 ",
"                ........                ",
"                ........                ",
"                 ......                 ",
"                  ....     ..           ",
"                 ......   ....          ",
"              .................         ",
"             .................          ",
"           ..................           ",
"          ......        ......          ",
"         .....            .....         ",
"         ....              ....         ",
"        .....               ....        ",
"        .......             ....        ",
"       .... ....             ....       ",
"       ....   ....           ....       ",
"       ....    ......        ....       ",
"       ....     ......       ....       ",
"       ...       .....        ...       ",
"       ....       ....       ....       ",
"       ....        ..        ....       ",
"       ....                  ....       ",
"       ....                  ....       ",
"        ....                ....        ",
"        .....              .....        ",
"         .....            .....         ",
"          .....          .....          ",
"           ......      ......           ",
"           ..................           ",
"             ..............             ",
"               ..........               ",
"                  ....                  ",
"                                        ",
"                                        ",
"                                        ",
"                                        "};
