/* XPM */
static const char *const Cffwd7_xpm [] = {
/* columns rows colors chars-per-pixel */
"52 39 2 1 ",
". c #FFFFFF",
"# c #000000",
/* pixels */
"....................................................",
"....................................................",
"....#########........#########......................",
".....#########........#########.....................",
".......#########........#########...................",
"........#########........#########..................",
".........#########........#########.................",
"...........#########........#########...............",
"............#########........#########..............",
".............#########........#########.............",
"...............#########........#########...........",
"................#########........#########..........",
".................#########........#########.........",
"...................#########........#########.......",
"....................#########........#########......",
".....................#########........#########.....",
"......................#########........#########....",
".....................#########........#########.....",
"....................#########........#########......",
"...................#########........#########.......",
".................#########........#########.........",
"................#########........#########..........",
"...............#########........#########...........",
".............#########........#########.............",
"............#########........#########...#######....",
"...........#########........#########...########....",
".........#########........#########...##########....",
"........#########........#########...###########....",
".......#########........#########....###########....",
".....#########........#########......###########....",
"....#########........#########.......###########....",
".....................................###########....",
".....................................###########....",
".....................................###########....",
"....###########......##########......###########....",
"....###########......##########......###########....",
"....###########......##########......###########....",
"....................................................",
"...................................................."
};
