/* XPM */
static const char *const Cfrew1_xpm [] = {
/* columns rows colors chars-per-pixel */
"52 39 2 1 ",
". c #000000",
"# c #FFFFFF",
/* pixels */
"....................................................",
"....................................................",
"......................#########........#########....",
".....................#########........#########.....",
"...................#########........#########.......",
"..................#########........#########........",
"................##########........#########.........",
"...............#########........#########...........",
"..............#########........#########............",
"............#########........#########..............",
"...........#########........#########...............",
".........#########........#########.................",
"........#########........#########..................",
".......#########........#########...................",
"......#########........#########....................",
".....#########........#########.....................",
"....#########........#########......................",
".....#########........#########.....................",
"......#########........#########....................",
".......#########........#########...................",
".........#########.......#########..................",
"..........#########.......#########.................",
"............#########.......#########...............",
".............#########.......#########..............",
"...............#########.......#########............",
"................#########.......#########...........",
"..................#########.......#########.........",
"...................#########.......#########........",
"....................#########.......#########.......",
"......................#########.......#########.....",
".......................#########.......#########....",
"....................................................",
"....................................................",
"....................................................",
".....................................###########....",
".....................................###########....",
".....................................###########....",
"....................................................",
"...................................................."
};
