/* XPM */
static const char *const Cmute_xpm [] = {
/* columns rows colors chars-per-pixel */
"51 38 2 1 ",
". c #FFFFFF",
"# c #000000",
/* pixels */
".........#####..............####..............#####",
"..........#####...........######.............#####.",
"...........#####........########............#####..",
"............#####......#########...........#####...",
".............#####...###########..........#####....",
"..............#####..######.####.........#####.....",
"...............#####..###...####........#####......",
"................#####.......####.......#####.......",
"..............#..#####......####......#####........",
"............####..#####.....####.....#####.........",
".........########..#####....####....#####..........",
".......#########....#####...####...#####...........",
"###############......#####..####..#####............",
"#############.........#####..##..#####.............",
"#############..........#####....#####..............",
"####.....####...........#####..#####...............",
"####.....####............##########................",
"####.....####.............########.................",
"####.....####..............######..................",
"####.....####..............######..................",
"####.....####.............########.................",
"####.....####............##########................",
"####.....####...........#####..#####...............",
"#############..........#####....#####..............",
"#############.........#####..##..#####.............",
"###############......#####..####..#####............",
".......#########....#####...####...#####...........",
".........########..#####....####....#####..........",
"............####..#####.....####.....#####.........",
"..............#..#####......####......#####........",
"................#####.......####.......#####.......",
"...............#####..###...####........#####......",
"..............#####..######.####.........#####.....",
".............#####...###########..........#####....",
"............#####......#########...........#####...",
"...........#####........########............#####..",
"..........#####...........######.............#####.",
".........#####..............####..............#####"
};
