/* XPM */
static const char *const Cnew_xpm [] = {
/* columns rows colors chars-per-pixel */
"33 42 2 1 ",
". c #000000",
"# c #FFFFFF",
/* pixels */
"..###......####..................",
"..####.....####..................",
"..#####....####..................",
"..######...####..................",
"..#######..####..................",
"..#############..................",
"..#############..................",
"..#############..................",
"..####..#######..................",
"..####...######..................",
"..####....#####..................",
"..####.....####..................",
"..####......###..................",
".................................",
".................................",
".........#############...........",
".........#############...........",
".........#############...........",
".........####....................",
".........####....................",
".........#########...............",
".........#########...............",
".........####....................",
".........####....................",
".........#############...........",
".........#############...........",
".........#############...........",
".................................",
".................................",
"................####......####...",
"................####......####...",
"................####......####...",
"................####......####...",
"................####......####...",
"................####......####...",
"................####......####...",
"................####......####...",
"................####......####...",
"................#####....#####...",
"................##############...",
".................############....",
"..................##########....."
};
