/* XPM */
static const char *const Cpause_xpm [] = {
/* columns rows colors chars-per-pixel */
"53 40 2 1 ",
". c #000000",
"# c #FFFFFF",
/* pixels */
".....................................................",
".....................................................",
".........##############.......##############.........",
".........##############.......##############.........",
".........##############.......##############.........",
".........##############.......##############.........",
".........##############.......##############.........",
".........##############.......##############.........",
".........##############.......##############.........",
".........##############.......##############.........",
".........##############.......##############.........",
".........##############.......##############.........",
".........##############.......##############.........",
".........##############.......##############.........",
".........##############.......##############.........",
".........##############.......##############.........",
".........##############.......##############.........",
".........##############.......##############.........",
".........##############.......##############.........",
".........##############.......##############.........",
".........##############.......##############.........",
".........##############.......##############.........",
".........##############.......##############.........",
".........##############.......##############.........",
".........##############.......##############.........",
".........##############.......##############.........",
".........##############.......##############.........",
".........##############.......##############.........",
".........##############.......##############.........",
".........##############.......##############.........",
".........##############.......##############.........",
".........##############.......##############.........",
".........##############.......##############.........",
".........##############.......##############.........",
".........##############.......##############.........",
".........##############.......##############.........",
".....................................................",
".....................................................",
".....................................................",
"....................................................."
};
