/* XPM */
static const char *const Cvolume_xpm [] = {
/* columns rows colors chars-per-pixel */
"52 26 2 1 ",
". c #000000",
"  c #FFFFFF",
/* pixels */
".................................................   ",
"...............................................     ",
".............................................       ",
"...........................................         ",
".........................................           ",
".......................................             ",
".....................................               ",
"...................................                 ",
".................................                   ",
"...............................                     ",
".............................                       ",
"...........................                         ",
".........................                           ",
".......................                             ",
".....................                               ",
"...................                                 ",
".................                                   ",
"...............                                     ",
".............                                       ",
"...........                                         ",
".........                                           ",
".......                                             ",
".....                                               ",
"...                                                 ",
".                                                   ",
"                                                    "
};
