/* XPM */
static const char *const Cvps_xpm [] = {
/* columns rows colors chars-per-pixel */
"50 33 2 1 ",
". c #FFFFFF",
"  c #000000",
/* pixels */
"..................................................",
"..................................................",
"..................................................",
"..................................................",
"...   .......   ...         .........         ....",
"...   .......   ...          .......          ....",
"...   .......   ...          ......           ....",
"...   .......   ...   ...      ...      ..........",
"...   .......   ...   ....     ..      ...........",
"...   .......   ...   .....    ..     ............",
"....   .....   ....   ......   ..    .............",
"....   .....   ....   ......   ..    .............",
"....   .....   ....   .....    ..    .............",
"....   .....   ....   ....     ..      ...........",
"....   .....   ....   ...      ...      ..........",
".....   ...   .....           .....        .......",
".....   ...   .....          .......        ......",
".....   ...   .....         .........        .....",
".....   ...   .....   .................       ....",
"......   .   ......   ...................     ....",
"......   .   ......   ....................     ...",
"......   .   ......   ....................     ...",
".......     .......   ....................     ...",
".......     .......   ....................     ...",
".......     .......   ...................     ....",
"........   ........   .................       ....",
"........   ........   ...........            .....",
"........   ........   ...........           ......",
"........   ........   ...........          .......",
"..................................................",
"..................................................",
"..................................................",
".................................................."
};
