/* XPM */
static const char *const Bar169_xpm [] = {
/* columns rows colors chars-per-pixel */
"43 23 2 1 ",
". c #000000",
"# c #FFFFFF",
/* pixels */
"...........................................",
"...........................................",
"...........................................",
"........###...########..........#######....",
".......####..##########........#########...",
"......#####..####..####........###...###...",
".....######..###....###..####..###...###...",
"....###.###..###....###..####..###...###...",
"...###..###..###...............###...###...",
"........###..####..............###...###...",
"........###..########..........###...###...",
"........###..#########..........########...",
"........###..###....###..........#######...",
"........###..###....###..............###...",
"........###..###....###..............###...",
"........###..###....###..####..###...###...",
"........###..###....###..####..###...###...",
"........###..###....###........###...###...",
"........###...#########........#########...",
"........###....#######..........#######....",
"...........................................",
"...........................................",
"..........................................."
};
