/* XPM */
static const char *const BarLG169_xpm [] = {
/* columns rows colors chars-per-pixel */
"43 23 2 1 ",
". c #000000",
"# c #FFFFFF",
/* pixels */
"...........................................",
"...........................................",
"...........................................",
"............###....#######........#######..",
".###.......####...########.......#########.",
"..###.....#####...###...###......###...###.",
"...###...######...###...###.###..###...###.",
"....###..######...###...###.###..###...###.",
".....###.##.###...###............###...###.",
"......###...###...###............###...###.",
".......###..###...###............#########.",
"........##..###...########.......#########.",
".......###..###...###.#####.......########.",
"......###...###...###...###............###.",
".....###....###...###...###............###.",
"....###.....###...###...###.###..###...###.",
"...###......###...###...###.###..###...###.",
"..###.......###...###...###......###...###.",
".###........###...#########......#########.",
"............###....#######........#######..",
"...........................................",
"...........................................",
"..........................................."
};
