/* XPM */
static const char *const Barrowturn_xpm [] = {
/* columns rows colors chars-per-pixel */
"23 24 2 1 ",
". c #000000",
"# c #FFFFFF",
/* pixels */
"......#########........",
"....############.......",
"...##############......",
"...####......####......",
"...####.......###......",
"...###........###......",
"...###........###......",
"...###........###......",
"...###........###......",
"...###........###......",
"...###........###......",
"...###........###......",
"...###........###......",
"...###........###......",
"...###........###......",
"...###........###......",
"...###........###......",
"...###........###......",
"...###....###########..",
"...###.....#########...",
"...###......#######....",
"...###.......#####.....",
"...###........###......",
"...............#......."
};
