/* XPM */
static const char *const Baudio_xpm[] = {
/* columns rows colors chars-per-pixel */
"33 22 2 1 ",
". c #FFFFFF",
"# c #000000",
/* pixels */
".................................",
".................................",
"..#############################..",
"..#############################..",
"..#############################..",
"..###.......................###..",
"..###.......................###..",
"..###....####.......####....###..",
"..###...######.....######...###..",
"..###..###..###...###..###..###..",
"..###.###....###.###....###.###..",
"..###.###....###.###....###.###..",
"..###..###..###...###..###..###..",
"..###...######.....######...###..",
"..###....####.......####....###..",
"..###.......................###..",
"..###.......................###..",
"..#############################..",
"..#############################..",
"..#############################..",
".................................",
"................................."
};
