/* XPM */
static const char *const Bffwd6_xpm [] = {
/* columns rows colors chars-per-pixel */
"35 26 2 1 ",
". c #000000",
"# c #FFFFFF",
/* pixels */
"...................................",
"...######.....######...............",
"....######.....######..............",
"......######.....######............",
".......######.....######...........",
"........######.....######..........",
"..........######.....######........",
"...........######.....######.......",
"............######.....######......",
"..............######.....######....",
"...............######.....######...",
"...............######.....######...",
"..............######.....######....",
"............######.....######......",
"...........######.....######.......",
"..........######.....######........",
"........######.....######..........",
".......######.....######...........",
"......######.....######..#######...",
"....######.....######....#######...",
"...######.....######.....#######...",
".........................#######...",
".........................#######...",
"...#######....#######....#######...",
"...#######....#######....#######...",
"..................................."
};
