/* XPM */
static const char *const Bmute_xpm [] = {
/* columns rows colors chars-per-pixel */
"33 25 2 1 ",
". c #FFFFFF",
"# c #000000",
/* pixels */
"......###.........###.........###",
".......###......#####........###.",
"........###...#######.......###..",
".........###.########......###...",
"..........###.##..###.....###....",
"...........###....###....###.....",
".......####.###...###...###......",
"....######...###..###..###.......",
"##########....###.###.###........",
"#########......###...###.........",
"###...###.......#######..........",
"###...###........#####...........",
"###...###........####............",
"###...###........#####...........",
"###...###.......#######..........",
"#########......###...###.........",
"##########....###.###.###........",
"....######...###..###..###.......",
".......####.###...###...###......",
".........#.###....###....###.....",
"..........###.##..###.....###....",
".........###.########......###...",
"........###...#######.......###..",
".......###......#####........###.",
"......###.........###.........###"
};
