/* XPM */
static const char *const Bnew_xpm [] = {
/* columns rows colors chars-per-pixel */
"23 29 2 1 ",
". c #000000",
"# c #FFFFFF",
/* pixels */
".###....###............",
".####...###............",
".#####..###............",
".##########............",
".##########............",
".##########............",
".###..#####............",
".###...####............",
".###....###............",
".......................",
"......#########........",
"......#########........",
"......###..............",
"......###..............",
"......#######..........",
"......###..............",
"......###..............",
"......##########.......",
"......##########.......",
".......................",
"...........###....###..",
"...........###....###..",
"...........###....###..",
"...........###....###..",
"...........###....###..",
"...........###....###..",
"...........####..####..",
"...........##########..",
"............########..."
};
