/* XPM */
static const char *const Bsrew1_xpm [] = {
/* columns rows colors chars-per-pixel */
"35 26 2 1 ",
". c #000000",
"# c #FFFFFF",
/* pixels */
"...................................",
"...............######....#######...",
"..............######.....#######...",
"............######.......#######...",
"...........######........#######...",
"..........######.........#######...",
"........######...........#######...",
".......######............#######...",
"......######.............#######...",
"....######...............#######...",
"...######................#######...",
"...######................#######...",
"....######...............#######...",
"......######.............#######...",
".......######............#######...",
"........######...........#######...",
"..........######.........#######...",
"...........######........#######...",
"............######.......#######...",
"..............######.....#######...",
"...............######....#######...",
"...................................",
"...................................",
".........................#######...",
".........................#######...",
"..................................."
};
