/* XPM */
static const char *const Bvolume_xpm [] = {
/* columns rows colors chars-per-pixel */
"35 18 2 1 ",
". c #000000",
"# c #FFFFFF",
/* pixels */
".................................##",
"...............................####",
".............................######",
"...........................########",
".........................##########",
".......................############",
".....................##############",
"...................################",
".................##################",
"...............####################",
".............######################",
"...........########################",
".........##########################",
".......############################",
".....##############################",
"...################################",
".##################################",
"###################################"
};
