/* XPM */
static const char *const Bvpssml_xpm [] = {
/* columns rows colors chars-per-pixel */
"23 29 2 1 ",
". c #000000",
"# c #FFFFFF",
/* pixels */
"..###...###............",
"..###...###............",
"..###...###............",
"..###...###............",
"...###.###.............",
"...###.###.............",
"....#####..............",
"....#####..............",
".....###...............",
".......................",
".......#######.........",
".......########........",
".......###..###........",
".......###..###........",
".......########........",
".......#######.........",
".......###.............",
".......###.............",
".......###.............",
".......................",
"............#########..",
"...........##########..",
"...........###.........",
"...........###.........",
"............########...",
"..................###..",
"..................###..",
"...........##########..",
"...........########...."
};
